<svg width="70" height="70" viewBox="0 0 70 70" fill="none" xmlns="http://www.w3.org/2000/svg">
<circle cx="35" cy="35" r="35" fill="#FEE500"/>
<path d="M35.1012 16.892C24.212 16.892 15.4304 23.9172 15.4304 32.4459C15.4304 37.9819 19.0835 42.8293 24.5633 45.5973L22.7086 52.5243C22.6736 52.6281 22.6682 52.7396 22.693 52.8463C22.7179 52.953 22.7719 53.0507 22.8491 53.1284C22.9616 53.2277 23.1065 53.2826 23.2566 53.2829C23.381 53.2729 23.4991 53.2238 23.5938 53.1425L31.5745 47.7611C32.7526 47.9237 33.9401 48.0081 35.1293 48.014C46.0045 48.014 54.8002 40.9887 54.8002 32.4459C54.8002 23.9032 45.9764 16.892 35.1012 16.892Z" fill="#392020"/>
<path d="M22.3145 29.987H20.1648C19.8983 29.9948 19.6352 29.9265 19.406 29.7903C19.3043 29.7266 19.2169 29.6424 19.1492 29.5433C19.0815 29.4442 19.035 29.3321 19.0126 29.2142C19.0058 29.1394 19.0058 29.0643 19.0126 28.9895C19.0059 28.8496 19.0331 28.71 19.0918 28.5828C19.1505 28.4556 19.239 28.3445 19.3498 28.2588C19.5948 28.0814 19.8905 27.9877 20.1929 27.9918H26.6702C26.9388 27.9823 27.2037 28.056 27.4289 28.2026C27.5331 28.2635 27.6224 28.3468 27.6904 28.4465C27.7584 28.5461 27.8035 28.6595 27.8224 28.7787C27.8292 28.8488 27.8292 28.9194 27.8224 28.9895C27.829 29.1314 27.8019 29.2729 27.7433 29.4023C27.6847 29.5318 27.5962 29.6454 27.4852 29.734C27.2462 29.9112 26.9534 30.0006 26.6562 29.987H24.5767V37.3777C24.5851 37.5351 24.5607 37.6925 24.5051 37.8401C24.4495 37.9876 24.3638 38.1221 24.2535 38.2347C24.1477 38.3425 24.0206 38.4269 23.8802 38.4826C23.7399 38.5382 23.5894 38.5638 23.4386 38.5579C23.1747 38.5654 22.9164 38.4811 22.7079 38.3191C22.5095 38.1609 22.3748 37.9363 22.3286 37.6867C22.3147 37.5842 22.3147 37.4802 22.3286 37.3777L22.3145 29.987Z" fill="#FEE500"/>
<path d="M28.4426 28.5398C28.5044 28.3086 28.6495 28.1084 28.8501 27.9778C29.0637 27.8566 29.3072 27.7982 29.5526 27.8092H30.0865C30.3469 27.7998 30.6047 27.8631 30.8312 27.9918C31.0712 28.1532 31.2417 28.399 31.3089 28.6803L34.119 36.6189C34.1919 36.826 34.2529 37.0372 34.3017 37.2513C34.3065 37.3402 34.3065 37.4293 34.3017 37.5182C34.3064 37.6551 34.2812 37.7915 34.2279 37.9176C34.1745 38.0438 34.0942 38.1569 33.9926 38.2488C33.8941 38.3497 33.776 38.4293 33.6454 38.4825C33.5149 38.5356 33.3748 38.5613 33.2338 38.5579C33.0171 38.5795 32.7995 38.5275 32.616 38.4102C32.4324 38.293 32.2937 38.1173 32.2222 37.9116L31.6321 36.1834H27.9368L27.3466 37.9116C27.2768 38.1214 27.1365 38.3004 26.9494 38.4183C26.7624 38.5362 26.5403 38.5855 26.3209 38.5579C26.0833 38.5641 25.8506 38.4898 25.6606 38.3471C25.4754 38.1999 25.3505 37.9901 25.3093 37.7571C25.3018 37.6777 25.3018 37.5976 25.3093 37.5182C25.2852 37.3787 25.2852 37.2362 25.3093 37.0968C25.3093 36.9422 25.4076 36.7735 25.4639 36.6189L28.4426 28.5398ZM29.8476 30.3805L28.5128 34.5957H31.1684L29.8476 30.3805Z" fill="#FEE500"/>
<path d="M34.6235 28.9897C34.6092 28.6743 34.7203 28.3662 34.9326 28.1326C35.0405 28.0237 35.17 27.9387 35.3128 27.883C35.4556 27.8274 35.6085 27.8022 35.7616 27.8093C36.0248 27.8062 36.2816 27.8902 36.4922 28.0482C36.6874 28.213 36.817 28.4423 36.8575 28.6945C36.8714 28.7923 36.8714 28.8918 36.8575 28.9897V36.3803H40.7214C40.9893 36.3768 41.2525 36.4498 41.4802 36.5909C41.5825 36.654 41.6704 36.738 41.7381 36.8372C41.8059 36.9365 41.8521 37.0488 41.8736 37.167C41.8736 37.167 41.8736 37.3076 41.8736 37.3778C41.8803 37.5178 41.8531 37.6571 41.7944 37.7843C41.7357 37.9115 41.6472 38.0228 41.5364 38.1085C41.2914 38.2859 40.9958 38.3794 40.6933 38.3754H35.9442C35.6418 38.3948 35.3411 38.3161 35.0871 38.1507C34.86 37.9808 34.7086 37.7285 34.6656 37.4482C34.6553 37.2938 34.6553 37.1388 34.6656 36.9844L34.6235 28.9897Z" fill="#FEE500"/>
<path d="M42.1268 28.9898C42.1183 28.6753 42.2287 28.3693 42.4359 28.1327C42.6464 27.9413 42.9166 27.8283 43.2007 27.813C43.4848 27.7976 43.7655 27.8808 43.9955 28.0483C44.1949 28.2117 44.3294 28.4408 44.3749 28.6946C44.3818 28.7928 44.3818 28.8915 44.3749 28.9898V32.4321L47.9297 28.3292C48.0666 28.1893 48.2121 28.058 48.3652 27.936C48.5095 27.85 48.675 27.8061 48.843 27.8094C49.0885 27.808 49.3287 27.8816 49.5314 28.0202C49.627 28.0845 49.7086 28.1675 49.7713 28.2641C49.8341 28.3606 49.8767 28.4688 49.8968 28.5822C49.9024 28.61 49.9024 28.6388 49.8968 28.6666C49.8899 28.699 49.8899 28.7325 49.8968 28.7649C49.8963 28.9127 49.8575 29.058 49.7843 29.1865C49.7098 29.3225 49.6202 29.4496 49.5174 29.5657L47.185 32.123L49.9951 36.4787V36.6191C50.141 36.8205 50.2548 37.0434 50.3323 37.2797V37.3498C50.3486 37.5126 50.3251 37.677 50.2639 37.8287C50.2027 37.9804 50.1057 38.115 49.9811 38.2209C49.7467 38.3981 49.4599 38.4921 49.1661 38.488C48.9709 38.496 48.777 38.4523 48.6041 38.3614C48.417 38.2359 48.2628 38.0673 48.1545 37.8697L45.5411 33.6545L44.2906 34.9613V37.3076C44.299 37.622 44.1886 37.928 43.9814 38.1647C43.8704 38.2732 43.7383 38.358 43.5933 38.4135C43.4484 38.4691 43.2935 38.4945 43.1384 38.488C42.8791 38.4934 42.626 38.409 42.4218 38.2491C42.2233 38.0909 42.0886 37.8664 42.0425 37.6169C42.0286 37.5143 42.0286 37.4102 42.0425 37.3076L42.1268 28.9898Z" fill="#FEE500"/>
</svg>
