<svg width="76" height="71" viewBox="0 0 76 71" fill="none" xmlns="http://www.w3.org/2000/svg">
<path opacity="0.6" d="M37.8001 70.0833C58.4188 70.0833 75.1335 54.5999 75.1335 35.5C75.1335 16.4002 58.4188 0.916672 37.8001 0.916672C17.1815 0.916672 0.466797 16.4002 0.466797 35.5C0.466797 54.5999 17.1815 70.0833 37.8001 70.0833Z" fill="#FFF4E6"/>
<path d="M42.28 42.4167H33.32C32.4952 42.4167 31.8267 43.036 31.8267 43.8V61.7833C31.8267 62.5473 32.4952 63.1667 33.32 63.1667H42.28C43.1047 63.1667 43.7733 62.5473 43.7733 61.7833V43.8C43.7733 43.036 43.1047 42.4167 42.28 42.4167Z" fill="#8B4513"/>
<path d="M37.8 45.875C48.1093 45.875 56.4666 38.1333 56.4666 28.5833C56.4666 19.0334 48.1093 11.2917 37.8 11.2917C27.4907 11.2917 19.1333 19.0334 19.1333 28.5833C19.1333 38.1333 27.4907 45.875 37.8 45.875Z" fill="url(#paint0_linear_209_254)"/>
<path opacity="0.8" d="M30.3336 37.575C37.7563 37.575 43.7736 32.0009 43.7736 25.125C43.7736 18.2491 37.7563 12.675 30.3336 12.675C22.9108 12.675 16.8936 18.2491 16.8936 25.125C16.8936 32.0009 22.9108 37.575 30.3336 37.575Z" fill="url(#paint1_linear_209_254)"/>
<path opacity="0.8" d="M45.2667 37.575C52.6894 37.575 58.7067 32.0009 58.7067 25.125C58.7067 18.2491 52.6894 12.675 45.2667 12.675C37.844 12.675 31.8267 18.2491 31.8267 25.125C31.8267 32.0009 37.844 37.575 45.2667 37.575Z" fill="url(#paint2_linear_209_254)"/>
<path d="M37.8 32.0417C46.0475 32.0417 52.7334 25.8483 52.7334 18.2083C52.7334 10.5684 46.0475 4.375 37.8 4.375C29.5526 4.375 22.8667 10.5684 22.8667 18.2083C22.8667 25.8483 29.5526 32.0417 37.8 32.0417Z" fill="#A8E6A3"/>
<path opacity="0.7" d="M56.4668 18.2083C58.9557 15.9028 61.4446 15.9028 63.9335 18.2083C61.4446 20.5139 58.9557 20.5139 56.4668 18.2083Z" fill="#FFB6C1"/>
<path opacity="0.7" d="M11.6665 21.6667C14.1554 19.3611 16.6443 19.3611 19.1332 21.6667C16.6443 23.9722 14.1554 23.9722 11.6665 21.6667Z" fill="#87CEEB"/>
<path opacity="0.7" d="M52.7334 38.9583C55.2223 36.6528 57.7112 36.6528 60.2001 38.9583C57.7112 41.2639 55.2223 41.2639 52.7334 38.9583Z" fill="#DDA0DD"/>
<path opacity="0.6" d="M11.6668 13.3667C12.9039 13.3667 13.9068 12.4377 13.9068 11.2917C13.9068 10.1457 12.9039 9.21666 11.6668 9.21666C10.4296 9.21666 9.42676 10.1457 9.42676 11.2917C9.42676 12.4377 10.4296 13.3667 11.6668 13.3667Z" fill="#FFB6C1"/>
<path opacity="0.6" d="M60.1999 9.21666C61.0246 9.21666 61.6932 8.59732 61.6932 7.83333C61.6932 7.06934 61.0246 6.45 60.1999 6.45C59.3751 6.45 58.7065 7.06934 58.7065 7.83333C58.7065 8.59732 59.3751 9.21666 60.1999 9.21666Z" fill="#87CEEB"/>
<path opacity="0.6" d="M4.19988 40.3417C5.02462 40.3417 5.69321 39.7223 5.69321 38.9583C5.69321 38.1943 5.02462 37.575 4.19988 37.575C3.37513 37.575 2.70654 38.1943 2.70654 38.9583C2.70654 39.7223 3.37513 40.3417 4.19988 40.3417Z" fill="#DDA0DD"/>
<path opacity="0.6" d="M63.9334 54.8667C65.1705 54.8667 66.1734 53.9377 66.1734 52.7917C66.1734 51.6457 65.1705 50.7167 63.9334 50.7167C62.6962 50.7167 61.6934 51.6457 61.6934 52.7917C61.6934 53.9377 62.6962 54.8667 63.9334 54.8667Z" fill="#98FB98"/>
<defs>
<linearGradient id="paint0_linear_209_254" x1="19.1333" y1="11.2917" x2="19.1333" y2="3469.63" gradientUnits="userSpaceOnUse">
<stop stop-color="#7FB069"/>
<stop offset="1" stop-color="#5C8A3A"/>
</linearGradient>
<linearGradient id="paint1_linear_209_254" x1="16.8936" y1="12.675" x2="2499.62" y2="2692.83" gradientUnits="userSpaceOnUse">
<stop stop-color="#A8E6A3"/>
<stop offset="1" stop-color="#7FB069"/>
</linearGradient>
<linearGradient id="paint2_linear_209_254" x1="31.8267" y1="12.675" x2="2514.56" y2="2692.83" gradientUnits="userSpaceOnUse">
<stop stop-color="#A8E6A3"/>
<stop offset="1" stop-color="#7FB069"/>
</linearGradient>
</defs>
</svg>
