<svg width="40" height="40" viewBox="0 0 40 40" fill="none" xmlns="http://www.w3.org/2000/svg">
<path d="M15.7895 34.4443C15.7895 30.1487 20.7379 26.6665 26.8421 26.6665C32.9463 26.6665 37.8947 30.1487 37.8947 34.4443" stroke="#B9B9B9" stroke-width="3.5" stroke-linecap="round" stroke-linejoin="round"/>
<path d="M27.3684 21.1112C31.4379 21.1112 34.7368 17.629 34.7368 13.3334C34.7368 9.03789 31.4379 5.55566 27.3684 5.55566C23.299 5.55566 20 9.03789 20 13.3334C20 17.629 23.299 21.1112 27.3684 21.1112Z" stroke="#B9B9B9" stroke-width="3.5" stroke-linecap="round" stroke-linejoin="round"/>
<path d="M13.6299 14.8354C13.8672 14.585 14.1889 14.4443 14.5244 14.4443C14.8599 14.4443 15.1817 14.585 15.4189 14.8354C15.6562 15.0859 15.7895 15.4255 15.7895 15.7796C15.7895 16.1338 15.6562 16.4734 15.4189 16.7238L9.75375 22.7038L7.36841 23.3332L7.96474 20.8154L13.6299 14.8354Z" stroke="#B9B9B9" stroke-width="1.8" stroke-linecap="round" stroke-linejoin="round"/>
<path d="M7.89474 16.6665H3.39181C3.0506 16.6665 2.72336 16.8096 2.48208 17.0643C2.24081 17.3189 2.10526 17.6644 2.10526 18.0245V27.5307C2.10526 27.8909 2.24081 28.2363 2.48208 28.491C2.72336 28.7456 3.0506 28.8887 3.39181 28.8887H12.3977C12.7389 28.8887 13.0661 28.7456 13.3074 28.491C13.5487 28.2363 13.6842 27.8909 13.6842 27.5307V22.7776" stroke="#B9B9B9" stroke-width="2.5" stroke-linecap="round" stroke-linejoin="round"/>
</svg>
