<svg width="35" height="35" viewBox="0 0 35 35" fill="none" xmlns="http://www.w3.org/2000/svg">
<path d="M22.9761 20.7885H21.824L21.4156 20.3948C22.8448 18.7323 23.7052 16.574 23.7052 14.226C23.7052 8.99062 19.4615 4.74687 14.2261 4.74687C8.99064 4.74687 4.74689 8.99062 4.74689 14.226C4.74689 19.4615 8.99064 23.7052 14.2261 23.7052C16.574 23.7052 18.7323 22.8448 20.3948 21.4156L20.7886 21.824V22.976L28.0802 30.2531L30.2531 28.0802L22.9761 20.7885ZM14.2261 20.7885C10.5948 20.7885 7.66355 17.8573 7.66355 14.226C7.66355 10.5948 10.5948 7.66354 14.2261 7.66354C17.8573 7.66354 20.7886 10.5948 20.7886 14.226C20.7886 17.8573 17.8573 20.7885 14.2261 20.7885Z" fill="#F7F9F9"/>
<path d="M17.8719 14.9552H14.9552V17.8719H13.4969V14.9552H10.5802V13.4969H13.4969V10.5802H14.9552V13.4969H17.8719V14.9552Z" fill="#F7F9F9"/>
</svg>
