<svg width="23" height="23" viewBox="0 0 23 23" fill="none" xmlns="http://www.w3.org/2000/svg">
<path fill-rule="evenodd" clip-rule="evenodd" d="M11.0209 2.63544C6.38972 2.63544 2.63544 6.38972 2.63544 11.0209C2.63544 15.652 6.38972 19.4063 11.0209 19.4063C15.652 19.4063 19.4063 15.652 19.4063 11.0209C19.4063 6.38972 15.652 2.63544 11.0209 2.63544ZM1.19794 11.0209C1.19794 5.59581 5.59581 1.19794 11.0209 1.19794C16.4459 1.19794 20.8438 5.59581 20.8438 11.0209C20.8438 13.4747 19.944 15.7184 18.4564 17.44L21.5916 20.5751C21.8723 20.8558 21.8723 21.3109 21.5916 21.5916C21.3109 21.8723 20.8558 21.8723 20.5751 21.5916L17.44 18.4564C15.7184 19.944 13.4747 20.8438 11.0209 20.8438C5.59581 20.8438 1.19794 16.4459 1.19794 11.0209Z" fill="#6C9A8B"/>
</svg>
