<svg xmlns="http://www.w3.org/2000/svg" width="300" height="300" viewBox="0 0 29 29"><path d="M0 0h1v1H0zm1 0h1v1H1zm1 0h1v1H2zm1 0h1v1H3zm1 0h1v1H4zm1 0h1v1H5zm1 0h1v1H6zm4 0h1v1h-1zm1 0h1v1h-1zm1 0h1v1h-1zm1 0h1v1h-1zm1 0h1v1h-1zm2 0h1v1h-1zm1 0h1v1h-1zm3 0h1v1h-1zm2 0h1v1h-1zm1 0h1v1h-1zm1 0h1v1h-1zm1 0h1v1h-1zm1 0h1v1h-1zm1 0h1v1h-1zm1 0h1v1h-1zM0 1h1v1H0zm6 0h1v1H6zm2 0h1v1H8zm3 0h1v1h-1zm3 0h1v1h-1zm1 0h1v1h-1zm2 0h1v1h-1zm1 0h1v1h-1zm2 0h1v1h-1zm2 0h1v1h-1zm6 0h1v1h-1zM0 2h1v1H0zm2 0h1v1H2zm1 0h1v1H3zm1 0h1v1H4zm2 0h1v1H6zm4 0h1v1h-1zm1 0h1v1h-1zm1 0h1v1h-1zm1 0h1v1h-1zm1 0h1v1h-1zm2 0h1v1h-1zm1 0h1v1h-1zm1 0h1v1h-1zm2 0h1v1h-1zm2 0h1v1h-1zm2 0h1v1h-1zm1 0h1v1h-1zm1 0h1v1h-1zm2 0h1v1h-1zM0 3h1v1H0zm2 0h1v1H2zm1 0h1v1H3zm1 0h1v1H4zm2 0h1v1H6zm3 0h1v1H9zm1 0h1v1h-1zm1 0h1v1h-1zm1 0h1v1h-1zm1 0h1v1h-1zm1 0h1v1h-1zm1 0h1v1h-1zm7 0h1v1h-1zm2 0h1v1h-1zm1 0h1v1h-1zm1 0h1v1h-1zm2 0h1v1h-1zM0 4h1v1H0zm2 0h1v1H2zm1 0h1v1H3zm1 0h1v1H4zm2 0h1v1H6zm2 0h1v1H8zm1 0h1v1H9zm1 0h1v1h-1zm1 0h1v1h-1zm1 0h1v1h-1zm2 0h1v1h-1zm2 0h1v1h-1zm1 0h1v1h-1zm1 0h1v1h-1zm1 0h1v1h-1zm1 0h1v1h-1zm2 0h1v1h-1zm2 0h1v1h-1zm1 0h1v1h-1zm1 0h1v1h-1zm2 0h1v1h-1zM0 5h1v1H0zm6 0h1v1H6zm3 0h1v1H9zm1 0h1v1h-1zm3 0h1v1h-1zm2 0h1v1h-1zm5 0h1v1h-1zm2 0h1v1h-1zm6 0h1v1h-1zM0 6h1v1H0zm1 0h1v1H1zm1 0h1v1H2zm1 0h1v1H3zm1 0h1v1H4zm1 0h1v1H5zm1 0h1v1H6zm2 0h1v1H8zm2 0h1v1h-1zm2 0h1v1h-1zm2 0h1v1h-1zm2 0h1v1h-1zm2 0h1v1h-1zm2 0h1v1h-1zm2 0h1v1h-1zm1 0h1v1h-1zm1 0h1v1h-1zm1 0h1v1h-1zm1 0h1v1h-1zm1 0h1v1h-1zm1 0h1v1h-1zM10 7h1v1h-1zm3 0h1v1h-1zm1 0h1v1h-1zm2 0h1v1h-1zm1 0h1v1h-1zm3 0h1v1h-1zM0 8h1v1H0zm2 0h1v1H2zm2 0h1v1H4zm2 0h1v1H6zm4 0h1v1h-1zm4 0h1v1h-1zm2 0h1v1h-1zm2 0h1v1h-1zm1 0h1v1h-1zm1 0h1v1h-1zm4 0h1v1h-1zm3 0h1v1h-1zM4 9h1v1H4zm1 0h1v1H5zm5 0h1v1h-1zm1 0h1v1h-1zm1 0h1v1h-1zm2 0h1v1h-1zm2 0h1v1h-1zm5 0h1v1h-1zm1 0h1v1h-1zm1 0h1v1h-1zm2 0h1v1h-1zm3 0h1v1h-1zM1 10h1v1H1zm3 0h1v1H4zm2 0h1v1H6zm2 0h1v1H8zm1 0h1v1H9zm3 0h1v1h-1zm1 0h1v1h-1zm2 0h1v1h-1zm1 0h1v1h-1zm1 0h1v1h-1zm1 0h1v1h-1zm1 0h1v1h-1zm1 0h1v1h-1zm1 0h1v1h-1zm2 0h1v1h-1zm1 0h1v1h-1zm2 0h1v1h-1zm1 0h1v1h-1zm1 0h1v1h-1zM0 11h1v1H0zm2 0h1v1H2zm5 0h1v1H7zm4 0h1v1h-1zm5 0h1v1h-1zm1 0h1v1h-1zm1 0h1v1h-1zm1 0h1v1h-1zm2 0h1v1h-1zm1 0h1v1h-1zm5 0h1v1h-1zM1 12h1v1H1zm1 0h1v1H2zm1 0h1v1H3zm1 0h1v1H4zm2 0h1v1H6zm1 0h1v1H7zm5 0h1v1h-1zm8 0h1v1h-1zm1 0h1v1h-1zm1 0h1v1h-1zm1 0h1v1h-1zm2 0h1v1h-1zm2 0h1v1h-1zm1 0h1v1h-1zM1 13h1v1H1zm2 0h1v1H3zm5 0h1v1H8zm2 0h1v1h-1zm1 0h1v1h-1zm2 0h1v1h-1zm2 0h1v1h-1zm1 0h1v1h-1zm2 0h1v1h-1zm4 0h1v1h-1zm3 0h1v1h-1zm3 0h1v1h-1zM1 14h1v1H1zm1 0h1v1H2zm1 0h1v1H3zm2 0h1v1H5zm1 0h1v1H6zm2 0h1v1H8zm1 0h1v1H9zm1 0h1v1h-1zm2 0h1v1h-1zm2 0h1v1h-1zm1 0h1v1h-1zm1 0h1v1h-1zm5 0h1v1h-1zm1 0h1v1h-1zm1 0h1v1h-1zm1 0h1v1h-1zm1 0h1v1h-1zm2 0h1v1h-1zm1 0h1v1h-1zM1 15h1v1H1zm4 0h1v1H5zm2 0h1v1H7zm1 0h1v1H8zm3 0h1v1h-1zm2 0h1v1h-1zm1 0h1v1h-1zm1 0h1v1h-1zm5 0h1v1h-1zm2 0h1v1h-1zm2 0h1v1h-1zm1 0h1v1h-1zm2 0h1v1h-1zM0 16h1v1H0zm1 0h1v1H1zm2 0h1v1H3zm3 0h1v1H6zm4 0h1v1h-1zm2 0h1v1h-1zm2 0h1v1h-1zm1 0h1v1h-1zm2 0h1v1h-1zm1 0h1v1h-1zm3 0h1v1h-1zm1 0h1v1h-1zm3 0h1v1h-1zm2 0h1v1h-1zm1 0h1v1h-1zM3 17h1v1H3zm1 0h1v1H4zm3 0h1v1H7zm1 0h1v1H8zm4 0h1v1h-1zm2 0h1v1h-1zm1 0h1v1h-1zm2 0h1v1h-1zm3 0h1v1h-1zm1 0h1v1h-1zm1 0h1v1h-1zm3 0h1v1h-1zm1 0h1v1h-1zm2 0h1v1h-1zM0 18h1v1H0zm2 0h1v1H2zm2 0h1v1H4zm2 0h1v1H6zm1 0h1v1H7zm1 0h1v1H8zm2 0h1v1h-1zm1 0h1v1h-1zm1 0h1v1h-1zm1 0h1v1h-1zm2 0h1v1h-1zm2 0h1v1h-1zm6 0h1v1h-1zm1 0h1v1h-1zm3 0h1v1h-1zm1 0h1v1h-1zM1 19h1v1H1zm2 0h1v1H3zm1 0h1v1H4zm3 0h1v1H7zm3 0h1v1h-1zm5 0h1v1h-1zm5 0h1v1h-1zm3 0h1v1h-1zm2 0h1v1h-1zm2 0h1v1h-1zM0 20h1v1H0zm2 0h1v1H2zm1 0h1v1H3zm2 0h1v1H5zm1 0h1v1H6zm3 0h1v1H9zm6 0h1v1h-1zm1 0h1v1h-1zm1 0h1v1h-1zm2 0h1v1h-1zm1 0h1v1h-1zm1 0h1v1h-1zm1 0h1v1h-1zm1 0h1v1h-1zm1 0h1v1h-1zM8 21h1v1H8zm1 0h1v1H9zm1 0h1v1h-1zm3 0h1v1h-1zm4 0h1v1h-1zm1 0h1v1h-1zm1 0h1v1h-1zm1 0h1v1h-1zm4 0h1v1h-1zm2 0h1v1h-1zm1 0h1v1h-1zm1 0h1v1h-1zM0 22h1v1H0zm1 0h1v1H1zm1 0h1v1H2zm1 0h1v1H3zm1 0h1v1H4zm1 0h1v1H5zm1 0h1v1H6zm3 0h1v1H9zm2 0h1v1h-1zm1 0h1v1h-1zm2 0h1v1h-1zm1 0h1v1h-1zm1 0h1v1h-1zm1 0h1v1h-1zm1 0h1v1h-1zm1 0h1v1h-1zm1 0h1v1h-1zm2 0h1v1h-1zm2 0h1v1h-1zm1 0h1v1h-1zm2 0h1v1h-1zm1 0h1v1h-1zM0 23h1v1H0zm6 0h1v1H6zm4 0h1v1h-1zm2 0h1v1h-1zm1 0h1v1h-1zm1 0h1v1h-1zm1 0h1v1h-1zm2 0h1v1h-1zm1 0h1v1h-1zm1 0h1v1h-1zm1 0h1v1h-1zm4 0h1v1h-1zm1 0h1v1h-1zm3 0h1v1h-1zM0 24h1v1H0zm2 0h1v1H2zm1 0h1v1H3zm1 0h1v1H4zm2 0h1v1H6zm2 0h1v1H8zm2 0h1v1h-1zm1 0h1v1h-1zm3 0h1v1h-1zm3 0h1v1h-1zm1 0h1v1h-1zm2 0h1v1h-1zm1 0h1v1h-1zm1 0h1v1h-1zm1 0h1v1h-1zm1 0h1v1h-1zm4 0h1v1h-1zM0 25h1v1H0zm2 0h1v1H2zm1 0h1v1H3zm1 0h1v1H4zm2 0h1v1H6zm3 0h1v1H9zm1 0h1v1h-1zm2 0h1v1h-1zm2 0h1v1h-1zm1 0h1v1h-1zm2 0h1v1h-1zm1 0h1v1h-1zm5 0h1v1h-1zm1 0h1v1h-1zm2 0h1v1h-1zM0 26h1v1H0zm2 0h1v1H2zm1 0h1v1H3zm1 0h1v1H4zm2 0h1v1H6zm2 0h1v1H8zm1 0h1v1H9zm1 0h1v1h-1zm2 0h1v1h-1zm2 0h1v1h-1zm3 0h1v1h-1zm1 0h1v1h-1zm5 0h1v1h-1zm1 0h1v1h-1zm1 0h1v1h-1zm3 0h1v1h-1zM0 27h1v1H0zm6 0h1v1H6zm3 0h1v1H9zm2 0h1v1h-1zm2 0h1v1h-1zm3 0h1v1h-1zm2 0h1v1h-1zm1 0h1v1h-1zm1 0h1v1h-1zm1 0h1v1h-1zm1 0h1v1h-1zm1 0h1v1h-1zm1 0h1v1h-1zm3 0h1v1h-1zM0 28h1v1H0zm1 0h1v1H1zm1 0h1v1H2zm1 0h1v1H3zm1 0h1v1H4zm1 0h1v1H5zm1 0h1v1H6zm2 0h1v1H8zm2 0h1v1h-1zm1 0h1v1h-1zm4 0h1v1h-1zm1 0h1v1h-1zm1 0h1v1h-1zm1 0h1v1h-1zm1 0h1v1h-1zm1 0h1v1h-1zm1 0h1v1h-1zm2 0h1v1h-1zm4 0h1v1h-1zm1 0h1v1h-1z"/></svg>