<svg width="35" height="35" viewBox="0 0 35 35" fill="none" xmlns="http://www.w3.org/2000/svg">
<path d="M26.25 23.5083C25.1417 23.5083 24.15 23.9458 23.3917 24.6312L12.9938 18.5792C13.0667 18.2437 13.125 17.9083 13.125 17.5583C13.125 17.2083 13.0667 16.8729 12.9938 16.5375L23.275 10.5437C24.0625 11.2729 25.0979 11.725 26.25 11.725C28.6708 11.725 30.625 9.77083 30.625 7.35C30.625 4.92917 28.6708 2.975 26.25 2.975C23.8292 2.975 21.875 4.92917 21.875 7.35C21.875 7.7 21.9333 8.03541 22.0063 8.37083L11.725 14.3646C10.9375 13.6354 9.90208 13.1833 8.75 13.1833C6.32917 13.1833 4.375 15.1375 4.375 17.5583C4.375 19.9792 6.32917 21.9333 8.75 21.9333C9.90208 21.9333 10.9375 21.4812 11.725 20.7521L22.1083 26.8187C22.0354 27.125 21.9917 27.4458 21.9917 27.7667C21.9917 30.1146 23.9021 32.025 26.25 32.025C28.5979 32.025 30.5083 30.1146 30.5083 27.7667C30.5083 25.4187 28.5979 23.5083 26.25 23.5083ZM26.25 5.89167C27.0521 5.89167 27.7083 6.54792 27.7083 7.35C27.7083 8.15208 27.0521 8.80833 26.25 8.80833C25.4479 8.80833 24.7917 8.15208 24.7917 7.35C24.7917 6.54792 25.4479 5.89167 26.25 5.89167ZM8.75 19.0167C7.94792 19.0167 7.29167 18.3604 7.29167 17.5583C7.29167 16.7562 7.94792 16.1 8.75 16.1C9.55208 16.1 10.2083 16.7562 10.2083 17.5583C10.2083 18.3604 9.55208 19.0167 8.75 19.0167ZM26.25 29.2542C25.4479 29.2542 24.7917 28.5979 24.7917 27.7958C24.7917 26.9937 25.4479 26.3375 26.25 26.3375C27.0521 26.3375 27.7083 26.9937 27.7083 27.7958C27.7083 28.5979 27.0521 29.2542 26.25 29.2542Z" fill="#F7F9F9"/>
</svg>
